<svg xmlns="http://www.w3.org/2000/svg" viewBox="0 0 1200 1200" width="1200px" height="1200px" version="1.1"><line style="stroke-dasharray:2,10" x1="6" y1="599" x2="26" y2="449" fill="none" stroke="black" stroke-width="1"/><line style="stroke-dasharray:8,8" x1="16" y1="599" x2="186" y2="189" fill="none" stroke="black" stroke-width="1"/><line style="" x1="20" y1="603" x2="1160" y2="453" fill="none" stroke="black" stroke-width="1"/><line style="stroke-dasharray:8,8,2,10" x1="34" y1="603" x2="112" y2="313" fill="none" stroke="black" stroke-width="1"/><line style="stroke-dasharray:8,8" x1="36" y1="449" x2="94" y2="309" fill="none" stroke="black" stroke-width="1"/><line style="" x1="40" y1="453" x2="1102" y2="313" fill="none" stroke="black" stroke-width="1"/><line style="stroke-dasharray:8,8,2,10" x1="53" y1="457" x2="203" y2="197" fill="none" stroke="black" stroke-width="1"/><line style="stroke-dasharray:2,10" x1="87" y1="301" x2="179" y2="181" fill="none" stroke="black" stroke-width="1"/><line style="" x1="100" y1="313" x2="452" y2="43" fill="none" stroke="black" stroke-width="1"/><line style="" x1="192" y1="193" x2="312" y2="101" fill="none" stroke="black" stroke-width="1"/><line style="stroke-dasharray:2,10" x1="305" y1="85" x2="445" y2="27" fill="none" stroke="black" stroke-width="1"/><line style="stroke-dasharray:8,8" x1="310" y1="94" x2="750" y2="36" fill="none" stroke="black" stroke-width="1"/><line style="stroke-dasharray:8,8,2,10" x1="313" y1="112" x2="603" y2="34" fill="none" stroke="black" stroke-width="1"/><line style="stroke-dasharray:8,8" x1="450" y1="36" x2="600" y2="16" fill="none" stroke="black" stroke-width="1"/><line style="stroke-dasharray:8,8,2,10" x1="450" y1="55" x2="750" y2="55" fill="none" stroke="black" stroke-width="1"/><line style="stroke-dasharray:2,10" x1="601" y1="6" x2="751" y2="26" fill="none" stroke="black" stroke-width="1"/><line style="" x1="599" y1="23" x2="1009" y2="193" fill="none" stroke="black" stroke-width="1"/><line style="" x1="749" y1="43" x2="889" y2="101" fill="none" stroke="black" stroke-width="1"/><line style="stroke-dasharray:2,10" x1="899" y1="87" x2="1019" y2="179" fill="none" stroke="black" stroke-width="1"/><line style="stroke-dasharray:8,8" x1="893" y1="95" x2="1163" y2="447" fill="none" stroke="black" stroke-width="1"/><line style="stroke-dasharray:8,8,2,10" x1="876" y1="99" x2="996" y2="1011" fill="none" stroke="black" stroke-width="1"/><line style="stroke-dasharray:8,8" x1="1013" y1="187" x2="1105" y2="307" fill="none" stroke="black" stroke-width="1"/><line style="stroke-dasharray:8,8,2,10" x1="996" y1="191" x2="1088" y2="891" fill="none" stroke="black" stroke-width="1"/><line style="stroke-dasharray:2,10" x1="1115" y1="305" x2="1173" y2="445" fill="none" stroke="black" stroke-width="1"/><line style="stroke-dasharray:8,8,2,10" x1="1088" y1="311" x2="1146" y2="751" fill="none" stroke="black" stroke-width="1"/><line style="stroke-dasharray:8,8,2,10" x1="1146" y1="451" x2="1166" y2="601" fill="none" stroke="black" stroke-width="1"/><line style="stroke-dasharray:2,10" x1="1194" y1="601" x2="1174" y2="751" fill="none" stroke="black" stroke-width="1"/><line style="stroke-dasharray:8,8" x1="1184" y1="601" x2="1014" y2="1011" fill="none" stroke="black" stroke-width="1"/><line style="" x1="1178" y1="597" x2="308" y2="1099" fill="none" stroke="black" stroke-width="1"/><line style="stroke-dasharray:8,8" x1="1164" y1="751" x2="1106" y2="891" fill="none" stroke="black" stroke-width="1"/><line style="" x1="1159" y1="747" x2="189" y2="1007" fill="none" stroke="black" stroke-width="1"/><line style="stroke-dasharray:2,10" x1="1113" y1="899" x2="1021" y2="1019" fill="none" stroke="black" stroke-width="1"/><line style="" x1="1100" y1="887" x2="748" y2="1157" fill="none" stroke="black" stroke-width="1"/><line style="" x1="1008" y1="1007" x2="888" y2="1099" fill="none" stroke="black" stroke-width="1"/><line style="stroke-dasharray:2,10" x1="895" y1="1115" x2="755" y2="1173" fill="none" stroke="black" stroke-width="1"/><line style="stroke-dasharray:8,8" x1="889" y1="1106" x2="39" y2="754" fill="none" stroke="black" stroke-width="1"/><line style="stroke-dasharray:8,8,2,10" x1="889" y1="1088" x2="449" y2="1146" fill="none" stroke="black" stroke-width="1"/><line style="stroke-dasharray:8,8" x1="750" y1="1164" x2="600" y2="1184" fill="none" stroke="black" stroke-width="1"/><line style="stroke-dasharray:8,8,2,10" x1="749" y1="1146" x2="599" y2="1166" fill="none" stroke="black" stroke-width="1"/><line style="stroke-dasharray:2,10" x1="599" y1="1194" x2="449" y2="1174" fill="none" stroke="black" stroke-width="1"/><line style="" x1="602" y1="1177" x2="100" y2="887" fill="none" stroke="black" stroke-width="1"/><line style="stroke-dasharray:8,8" x1="449" y1="1164" x2="309" y2="1106" fill="none" stroke="black" stroke-width="1"/><line style="" x1="452" y1="1158" x2="42" y2="748" fill="none" stroke="black" stroke-width="1"/><line style="stroke-dasharray:2,10" x1="301" y1="1113" x2="181" y2="1021" fill="none" stroke="black" stroke-width="1"/><line style="stroke-dasharray:8,8,2,10" x1="321" y1="1093" x2="51" y2="741" fill="none" stroke="black" stroke-width="1"/><line style="stroke-dasharray:8,8" x1="187" y1="1013" x2="95" y2="893" fill="none" stroke="black" stroke-width="1"/><line style="stroke-dasharray:8,8,2,10" x1="201" y1="1001" x2="109" y2="881" fill="none" stroke="black" stroke-width="1"/><line style="stroke-dasharray:2,10" x1="85" y1="895" x2="27" y2="755" fill="none" stroke="black" stroke-width="1"/><circle cx="20" cy="600" r="20" fill="white" stroke="black" stroke-width="1"/><text x="20" y="609" font-size="28" text-anchor="middle" dominant-baseline="mathematical">1</text><circle cx="40" cy="450" r="20" fill="white" stroke="black" stroke-width="1"/><text x="40" y="459" font-size="28" text-anchor="middle" dominant-baseline="mathematical">2</text><circle cx="98" cy="310" r="20" fill="white" stroke="black" stroke-width="1"/><text x="98" y="319" font-size="28" text-anchor="middle" dominant-baseline="mathematical">3</text><circle cx="190" cy="190" r="20" fill="white" stroke="black" stroke-width="1"/><text x="190" y="199" font-size="28" text-anchor="middle" dominant-baseline="mathematical">4</text><circle cx="310" cy="98" r="20" fill="white" stroke="black" stroke-width="1"/><text x="310" y="107" font-size="28" text-anchor="middle" dominant-baseline="mathematical">5</text><circle cx="450" cy="40" r="20" fill="white" stroke="black" stroke-width="1"/><text x="450" y="49" font-size="28" text-anchor="middle" dominant-baseline="mathematical">6</text><circle cx="600" cy="20" r="20" fill="white" stroke="black" stroke-width="1"/><text x="600" y="29" font-size="28" text-anchor="middle" dominant-baseline="mathematical">7</text><circle cx="750" cy="40" r="20" fill="white" stroke="black" stroke-width="1"/><text x="750" y="49" font-size="28" text-anchor="middle" dominant-baseline="mathematical">8</text><circle cx="890" cy="98" r="20" fill="white" stroke="black" stroke-width="1"/><text x="890" y="107" font-size="28" text-anchor="middle" dominant-baseline="mathematical">9</text><circle cx="1010" cy="190" r="20" fill="white" stroke="black" stroke-width="1"/><text x="1010" y="199" font-size="28" text-anchor="middle" dominant-baseline="mathematical">10</text><circle cx="1102" cy="310" r="20" fill="white" stroke="black" stroke-width="1"/><text x="1102" y="319" font-size="28" text-anchor="middle" dominant-baseline="mathematical">11</text><circle cx="1160" cy="450" r="20" fill="white" stroke="black" stroke-width="1"/><text x="1160" y="459" font-size="28" text-anchor="middle" dominant-baseline="mathematical">12</text><circle cx="1180" cy="600" r="20" fill="white" stroke="black" stroke-width="1"/><text x="1180" y="609" font-size="28" text-anchor="middle" dominant-baseline="mathematical">13</text><circle cx="1160" cy="750" r="20" fill="white" stroke="black" stroke-width="1"/><text x="1160" y="759" font-size="28" text-anchor="middle" dominant-baseline="mathematical">14</text><circle cx="1102" cy="890" r="20" fill="white" stroke="black" stroke-width="1"/><text x="1102" y="899" font-size="28" text-anchor="middle" dominant-baseline="mathematical">15</text><circle cx="1010" cy="1010" r="20" fill="white" stroke="black" stroke-width="1"/><text x="1010" y="1019" font-size="28" text-anchor="middle" dominant-baseline="mathematical">16</text><circle cx="890" cy="1102" r="20" fill="white" stroke="black" stroke-width="1"/><text x="890" y="1111" font-size="28" text-anchor="middle" dominant-baseline="mathematical">17</text><circle cx="750" cy="1160" r="20" fill="white" stroke="black" stroke-width="1"/><text x="750" y="1169" font-size="28" text-anchor="middle" dominant-baseline="mathematical">18</text><circle cx="600" cy="1180" r="20" fill="white" stroke="black" stroke-width="1"/><text x="600" y="1189" font-size="28" text-anchor="middle" dominant-baseline="mathematical">19</text><circle cx="450" cy="1160" r="20" fill="white" stroke="black" stroke-width="1"/><text x="450" y="1169" font-size="28" text-anchor="middle" dominant-baseline="mathematical">20</text><circle cx="310" cy="1102" r="20" fill="white" stroke="black" stroke-width="1"/><text x="310" y="1111" font-size="28" text-anchor="middle" dominant-baseline="mathematical">21</text><circle cx="190" cy="1010" r="20" fill="white" stroke="black" stroke-width="1"/><text x="190" y="1019" font-size="28" text-anchor="middle" dominant-baseline="mathematical">22</text><circle cx="98" cy="890" r="20" fill="white" stroke="black" stroke-width="1"/><text x="98" y="899" font-size="28" text-anchor="middle" dominant-baseline="mathematical">23</text><circle cx="40" cy="750" r="20" fill="white" stroke="black" stroke-width="1"/><text x="40" y="759" font-size="28" text-anchor="middle" dominant-baseline="mathematical">24</text></svg>
