<?xml version="1.0" encoding="UTF-8" standalone="no"?>
<svg
   xmlns:dc="http://purl.org/dc/elements/1.1/"
   xmlns:cc="http://creativecommons.org/ns#"
   xmlns:rdf="http://www.w3.org/1999/02/22-rdf-syntax-ns#"
   xmlns:svg="http://www.w3.org/2000/svg"
   xmlns="http://www.w3.org/2000/svg"
   xmlns:sodipodi="http://sodipodi.sourceforge.net/DTD/sodipodi-0.dtd"
   xmlns:inkscape="http://www.inkscape.org/namespaces/inkscape"
   viewBox="0 0 1436.9122 1314.0504"
   width="1436.9122"
   height="1314.0504"
   version="1.1"
   id="svg2"
   inkscape:version="0.48.4 r9939"
   sodipodi:docname="d3c24_2.svg">
  <metadata
     id="metadata200">
    <rdf:RDF>
      <cc:Work
         rdf:about="">
        <dc:format>image/svg+xml</dc:format>
        <dc:type
           rdf:resource="http://purl.org/dc/dcmitype/StillImage" />
        <dc:title />
      </cc:Work>
    </rdf:RDF>
  </metadata>
  <defs
     id="defs198" />
  <sodipodi:namedview
     pagecolor="#ffffff"
     bordercolor="#666666"
     borderopacity="1"
     objecttolerance="10"
     gridtolerance="10"
     guidetolerance="10"
     inkscape:pageopacity="0"
     inkscape:pageshadow="2"
     inkscape:window-width="1598"
     inkscape:window-height="862"
     id="namedview196"
     showgrid="false"
     inkscape:zoom="0.50156389"
     inkscape:cx="421.43326"
     inkscape:cy="655.52009"
     inkscape:window-x="0"
     inkscape:window-y="37"
     inkscape:window-maximized="0"
     inkscape:current-layer="layer1"
     fit-margin-top="0"
     fit-margin-left="0"
     fit-margin-right="0"
     fit-margin-bottom="0" />
  <line
     style="stroke:#000000;stroke-width:3;stroke-dasharray:2, 10"
     x1="186.29224"
     y1="633.21478"
     x2="206.29224"
     y2="483.21478"
     id="line4" />
  <line
     style="stroke:#000000;stroke-width:3;stroke-dasharray:8, 8"
     x1="196.29224"
     y1="633.21478"
     x2="366.29224"
     y2="223.21478"
     id="line6" />
  <line
     style="stroke:#000000;stroke-width:3"
     x1="200.29224"
     y1="637.21478"
     x2="1340.2922"
     y2="487.21478"
     id="line8" />
  <line
     style="stroke:#000000;stroke-width:3;stroke-dasharray:8, 8, 2, 10"
     x1="214.29224"
     y1="637.21478"
     x2="292.29224"
     y2="347.21478"
     id="line10" />
  <line
     style="stroke:#000000;stroke-width:3;stroke-dasharray:8, 8"
     x1="216.29224"
     y1="483.21478"
     x2="274.29224"
     y2="343.21478"
     id="line12" />
  <line
     style="stroke:#000000;stroke-width:3"
     x1="220.29224"
     y1="487.21478"
     x2="1282.2922"
     y2="347.21478"
     id="line14" />
  <line
     style="stroke:#000000;stroke-width:3;stroke-dasharray:8, 8, 2, 10"
     x1="233.29224"
     y1="491.21478"
     x2="383.29224"
     y2="231.21478"
     id="line16" />
  <line
     style="stroke:#000000;stroke-width:3;stroke-dasharray:2, 10"
     x1="267.29224"
     y1="335.21478"
     x2="359.29224"
     y2="215.21478"
     id="line18" />
  <line
     style="stroke:#000000;stroke-width:3"
     x1="280.29224"
     y1="347.21478"
     x2="632.29224"
     y2="77.214783"
     id="line20" />
  <line
     style="stroke:#000000;stroke-width:3"
     x1="372.29224"
     y1="227.21478"
     x2="492.29224"
     y2="135.21478"
     id="line22" />
  <line
     style="stroke:#000000;stroke-width:3;stroke-dasharray:2, 10"
     x1="485.29224"
     y1="119.21478"
     x2="625.29224"
     y2="61.214779"
     id="line24" />
  <line
     style="stroke:#000000;stroke-width:3;stroke-dasharray:8, 8"
     x1="490.29224"
     y1="128.21478"
     x2="930.29224"
     y2="70.214783"
     id="line26" />
  <line
     style="stroke:#000000;stroke-width:3;stroke-dasharray:8, 8, 2, 10"
     x1="493.29224"
     y1="146.21478"
     x2="783.29224"
     y2="68.214783"
     id="line28" />
  <line
     style="stroke:#000000;stroke-width:3;stroke-dasharray:8, 8"
     x1="630.29224"
     y1="70.214783"
     x2="780.29224"
     y2="50.214779"
     id="line30" />
  <line
     style="stroke:#000000;stroke-width:3;stroke-dasharray:8, 8, 2, 10"
     x1="630.29224"
     y1="89.214783"
     x2="930.29224"
     y2="89.214783"
     id="line32" />
  <line
     style="stroke:#000000;stroke-width:3;stroke-dasharray:2, 10"
     x1="781.29224"
     y1="40.214779"
     x2="931.29224"
     y2="60.214779"
     id="line34" />
  <line
     style="stroke:#000000;stroke-width:3"
     x1="779.29224"
     y1="57.214779"
     x2="1189.2922"
     y2="227.21478"
     id="line36" />
  <line
     style="stroke:#000000;stroke-width:3"
     x1="929.29224"
     y1="77.214783"
     x2="1069.2922"
     y2="135.21478"
     id="line38" />
  <line
     style="stroke:#000000;stroke-width:3;stroke-dasharray:2, 10"
     x1="1079.2922"
     y1="121.21478"
     x2="1199.2922"
     y2="213.21478"
     id="line40" />
  <line
     style="stroke:#000000;stroke-width:3;stroke-dasharray:8, 8"
     x1="1073.2922"
     y1="129.21478"
     x2="1343.2922"
     y2="481.21478"
     id="line42" />
  <line
     style="stroke:#000000;stroke-width:3;stroke-dasharray:8, 8, 2, 10"
     x1="1056.2922"
     y1="133.21478"
     x2="1176.2922"
     y2="1045.2147"
     id="line44" />
  <line
     style="stroke:#000000;stroke-width:3;stroke-dasharray:8, 8"
     x1="1193.2922"
     y1="221.21478"
     x2="1285.2922"
     y2="341.21478"
     id="line46" />
  <line
     style="stroke:#000000;stroke-width:3;stroke-dasharray:8, 8, 2, 10"
     x1="1176.2922"
     y1="225.21478"
     x2="1268.2922"
     y2="925.21478"
     id="line48" />
  <line
     style="stroke:#000000;stroke-width:3;stroke-dasharray:2, 10"
     x1="1295.2922"
     y1="339.21478"
     x2="1353.2922"
     y2="479.21478"
     id="line50" />
  <line
     style="stroke:#000000;stroke-width:3;stroke-dasharray:8, 8, 2, 10"
     x1="1268.2922"
     y1="345.21478"
     x2="1326.2922"
     y2="785.21478"
     id="line52" />
  <line
     style="stroke:#000000;stroke-width:3;stroke-dasharray:8, 8, 2, 10"
     x1="1326.2922"
     y1="485.21478"
     x2="1346.2922"
     y2="635.21478"
     id="line54" />
  <line
     style="stroke:#000000;stroke-width:3;stroke-dasharray:2, 10"
     x1="1374.2922"
     y1="635.21478"
     x2="1354.2922"
     y2="785.21478"
     id="line56" />
  <line
     style="stroke:#000000;stroke-width:3;stroke-dasharray:8, 8"
     x1="1364.2922"
     y1="635.21478"
     x2="1194.2922"
     y2="1045.2147"
     id="line58" />
  <line
     style="stroke:#000000;stroke-width:3"
     x1="1358.2922"
     y1="631.21478"
     x2="488.29224"
     y2="1133.2147"
     id="line60" />
  <line
     style="stroke:#000000;stroke-width:3;stroke-dasharray:8, 8"
     x1="1344.2922"
     y1="785.21478"
     x2="1286.2922"
     y2="925.21478"
     id="line62" />
  <line
     style="stroke:#000000;stroke-width:3"
     x1="1339.2922"
     y1="781.21478"
     x2="369.29224"
     y2="1041.2147"
     id="line64" />
  <line
     style="stroke:#000000;stroke-width:3;stroke-dasharray:2, 10"
     x1="1293.2922"
     y1="933.21478"
     x2="1201.2922"
     y2="1053.2147"
     id="line66" />
  <line
     style="stroke:#000000;stroke-width:3"
     x1="1280.2922"
     y1="921.21478"
     x2="928.29224"
     y2="1191.2147"
     id="line68" />
  <line
     style="stroke:#000000;stroke-width:3"
     x1="1188.2922"
     y1="1041.2147"
     x2="1068.2922"
     y2="1133.2147"
     id="line70" />
  <line
     style="stroke:#000000;stroke-width:3;stroke-dasharray:2, 10"
     x1="1075.2922"
     y1="1149.2147"
     x2="935.29224"
     y2="1207.2147"
     id="line72" />
  <line
     style="stroke:#000000;stroke-width:3;stroke-dasharray:8, 8"
     x1="1069.2922"
     y1="1140.2147"
     x2="219.29224"
     y2="788.21478"
     id="line74" />
  <line
     style="stroke:#000000;stroke-width:3;stroke-dasharray:8, 8, 2, 10"
     x1="1069.2922"
     y1="1122.2147"
     x2="629.29224"
     y2="1180.2147"
     id="line76" />
  <line
     style="stroke:#000000;stroke-width:3;stroke-dasharray:8, 8"
     x1="930.29224"
     y1="1198.2147"
     x2="780.29224"
     y2="1218.2147"
     id="line78" />
  <line
     style="stroke:#000000;stroke-width:3;stroke-dasharray:8, 8, 2, 10"
     x1="929.29224"
     y1="1180.2147"
     x2="779.29224"
     y2="1200.2147"
     id="line80" />
  <line
     style="stroke:#000000;stroke-width:3;stroke-dasharray:2, 10"
     x1="779.29224"
     y1="1228.2147"
     x2="629.29224"
     y2="1208.2147"
     id="line82" />
  <line
     style="stroke:#000000;stroke-width:3"
     x1="782.29224"
     y1="1211.2147"
     x2="280.29224"
     y2="921.21478"
     id="line84" />
  <line
     style="stroke:#000000;stroke-width:3;stroke-dasharray:8, 8"
     x1="629.29224"
     y1="1198.2147"
     x2="489.29224"
     y2="1140.2147"
     id="line86" />
  <line
     style="stroke:#000000;stroke-width:3"
     x1="632.29224"
     y1="1192.2147"
     x2="222.29224"
     y2="782.21478"
     id="line88" />
  <line
     style="stroke:#000000;stroke-width:3;stroke-dasharray:2, 10"
     x1="481.29224"
     y1="1147.2147"
     x2="361.29224"
     y2="1055.2147"
     id="line90" />
  <line
     style="stroke:#000000;stroke-width:3;stroke-dasharray:8, 8, 2, 10"
     x1="501.29224"
     y1="1127.2147"
     x2="231.29224"
     y2="775.21478"
     id="line92" />
  <line
     style="stroke:#000000;stroke-width:3;stroke-dasharray:8, 8"
     x1="367.29224"
     y1="1047.2147"
     x2="275.29224"
     y2="927.21478"
     id="line94" />
  <line
     style="stroke:#000000;stroke-width:3;stroke-dasharray:8, 8, 2, 10"
     x1="381.29224"
     y1="1035.2147"
     x2="289.29224"
     y2="915.21478"
     id="line96" />
  <line
     style="stroke:#000000;stroke-width:3;stroke-dasharray:2, 10"
     x1="265.29224"
     y1="929.21478"
     x2="207.29224"
     y2="789.21478"
     id="line98" />
  <circle
     cx="20"
     cy="600"
     r="20"
     id="circle100"
     sodipodi:cx="20"
     sodipodi:cy="600"
     sodipodi:rx="20"
     sodipodi:ry="20"
     style="fill:#ffffff;stroke:#000000;stroke-width:1"
     transform="translate(180.29224,34.214779)" />
  <text
     x="200.29224"
     y="643.21478"
     font-size="28"
     dominant-baseline="mathematical"
     id="text102"
     style="font-size:28px;text-anchor:middle">1</text>
  <circle
     cx="40"
     cy="450"
     r="20"
     id="circle104"
     sodipodi:cx="40"
     sodipodi:cy="450"
     sodipodi:rx="20"
     sodipodi:ry="20"
     style="fill:#ffffff;stroke:#000000;stroke-width:1"
     transform="translate(180.29224,34.214779)" />
  <text
     x="220.29224"
     y="493.21478"
     font-size="28"
     dominant-baseline="mathematical"
     id="text106"
     style="font-size:28px;text-anchor:middle">2</text>
  <circle
     cx="98"
     cy="310"
     r="20"
     id="circle108"
     sodipodi:cx="98"
     sodipodi:cy="310"
     sodipodi:rx="20"
     sodipodi:ry="20"
     style="fill:#ffffff;stroke:#000000;stroke-width:1"
     transform="translate(180.29224,34.214779)" />
  <text
     x="278.29224"
     y="353.21478"
     font-size="28"
     dominant-baseline="mathematical"
     id="text110"
     style="font-size:28px;text-anchor:middle">3</text>
  <circle
     cx="190"
     cy="190"
     r="20"
     id="circle112"
     sodipodi:cx="190"
     sodipodi:cy="190"
     sodipodi:rx="20"
     sodipodi:ry="20"
     style="fill:#ffffff;stroke:#000000;stroke-width:1"
     transform="translate(180.29224,34.214779)" />
  <text
     x="370.29224"
     y="233.21478"
     font-size="28"
     dominant-baseline="mathematical"
     id="text114"
     style="font-size:28px;text-anchor:middle">4</text>
  <circle
     cx="310"
     cy="98"
     r="20"
     id="circle116"
     sodipodi:cx="310"
     sodipodi:cy="98"
     sodipodi:rx="20"
     sodipodi:ry="20"
     style="fill:#ffffff;stroke:#000000;stroke-width:1"
     transform="translate(180.29224,34.214779)" />
  <text
     x="490.29224"
     y="141.21478"
     font-size="28"
     dominant-baseline="mathematical"
     id="text118"
     style="font-size:28px;text-anchor:middle">5</text>
  <circle
     cx="450"
     cy="40"
     r="20"
     id="circle120"
     sodipodi:cx="450"
     sodipodi:cy="40"
     sodipodi:rx="20"
     sodipodi:ry="20"
     style="fill:#ffffff;stroke:#000000;stroke-width:1"
     transform="translate(180.29224,34.214779)" />
  <text
     x="630.29224"
     y="83.214783"
     font-size="28"
     dominant-baseline="mathematical"
     id="text122"
     style="font-size:28px;text-anchor:middle">6</text>
  <circle
     cx="600"
     cy="20"
     r="20"
     id="circle124"
     sodipodi:cx="600"
     sodipodi:cy="20"
     sodipodi:rx="20"
     sodipodi:ry="20"
     style="fill:#ffffff;stroke:#000000;stroke-width:1"
     transform="translate(180.29224,34.214779)" />
  <text
     x="780.29224"
     y="63.214779"
     font-size="28"
     dominant-baseline="mathematical"
     id="text126"
     style="font-size:28px;text-anchor:middle">7</text>
  <circle
     cx="750"
     cy="40"
     r="20"
     id="circle128"
     sodipodi:cx="750"
     sodipodi:cy="40"
     sodipodi:rx="20"
     sodipodi:ry="20"
     style="fill:#ffffff;stroke:#000000;stroke-width:1"
     transform="translate(180.29224,34.214779)" />
  <text
     x="930.29224"
     y="83.214783"
     font-size="28"
     dominant-baseline="mathematical"
     id="text130"
     style="font-size:28px;text-anchor:middle">8</text>
  <circle
     cx="890"
     cy="98"
     r="20"
     id="circle132"
     sodipodi:cx="890"
     sodipodi:cy="98"
     sodipodi:rx="20"
     sodipodi:ry="20"
     style="fill:#ffffff;stroke:#000000;stroke-width:1"
     transform="translate(180.29224,34.214779)" />
  <text
     x="1070.2922"
     y="141.21478"
     font-size="28"
     dominant-baseline="mathematical"
     id="text134"
     style="font-size:28px;text-anchor:middle">9</text>
  <circle
     cx="1010"
     cy="190"
     r="20"
     id="circle136"
     sodipodi:cx="1010"
     sodipodi:cy="190"
     sodipodi:rx="20"
     sodipodi:ry="20"
     style="fill:#ffffff;stroke:#000000;stroke-width:1"
     transform="translate(180.29224,34.214779)" />
  <text
     x="1190.2922"
     y="233.21478"
     font-size="28"
     dominant-baseline="mathematical"
     id="text138"
     style="font-size:28px;text-anchor:middle">10</text>
  <circle
     cx="1102"
     cy="310"
     r="20"
     id="circle140"
     sodipodi:cx="1102"
     sodipodi:cy="310"
     sodipodi:rx="20"
     sodipodi:ry="20"
     style="fill:#ffffff;stroke:#000000;stroke-width:1"
     transform="translate(180.29224,34.214779)" />
  <text
     x="1282.2922"
     y="353.21478"
     font-size="28"
     dominant-baseline="mathematical"
     id="text142"
     style="font-size:28px;text-anchor:middle">11</text>
  <circle
     cx="1160"
     cy="450"
     r="20"
     id="circle144"
     sodipodi:cx="1160"
     sodipodi:cy="450"
     sodipodi:rx="20"
     sodipodi:ry="20"
     style="fill:#ffffff;stroke:#000000;stroke-width:1"
     transform="translate(180.29224,34.214779)" />
  <text
     x="1340.2922"
     y="493.21478"
     font-size="28"
     dominant-baseline="mathematical"
     id="text146"
     style="font-size:28px;text-anchor:middle">12</text>
  <circle
     cx="1180"
     cy="600"
     r="20"
     id="circle148"
     sodipodi:cx="1180"
     sodipodi:cy="600"
     sodipodi:rx="20"
     sodipodi:ry="20"
     style="fill:#ffffff;stroke:#000000;stroke-width:1"
     transform="translate(180.29224,34.214779)" />
  <text
     x="1360.2922"
     y="643.21478"
     font-size="28"
     dominant-baseline="mathematical"
     id="text150"
     style="font-size:28px;text-anchor:middle">13</text>
  <circle
     cx="1160"
     cy="750"
     r="20"
     id="circle152"
     sodipodi:cx="1160"
     sodipodi:cy="750"
     sodipodi:rx="20"
     sodipodi:ry="20"
     style="fill:#ffffff;stroke:#000000;stroke-width:1"
     transform="translate(180.29224,34.214779)" />
  <text
     x="1340.2922"
     y="793.21478"
     font-size="28"
     dominant-baseline="mathematical"
     id="text154"
     style="font-size:28px;text-anchor:middle">14</text>
  <circle
     cx="1102"
     cy="890"
     r="20"
     id="circle156"
     sodipodi:cx="1102"
     sodipodi:cy="890"
     sodipodi:rx="20"
     sodipodi:ry="20"
     style="fill:#ffffff;stroke:#000000;stroke-width:1"
     transform="translate(180.29224,34.214779)" />
  <text
     x="1282.2922"
     y="933.21478"
     font-size="28"
     dominant-baseline="mathematical"
     id="text158"
     style="font-size:28px;text-anchor:middle">15</text>
  <circle
     cx="1010"
     cy="1010"
     r="20"
     id="circle160"
     sodipodi:cx="1010"
     sodipodi:cy="1010"
     sodipodi:rx="20"
     sodipodi:ry="20"
     style="fill:#ffffff;stroke:#000000;stroke-width:1"
     transform="translate(180.29224,34.214779)" />
  <text
     x="1190.2922"
     y="1053.2147"
     font-size="28"
     dominant-baseline="mathematical"
     id="text162"
     style="font-size:28px;text-anchor:middle">16</text>
  <circle
     cx="890"
     cy="1102"
     r="20"
     id="circle164"
     sodipodi:cx="890"
     sodipodi:cy="1102"
     sodipodi:rx="20"
     sodipodi:ry="20"
     style="fill:#ffffff;stroke:#000000;stroke-width:1"
     transform="translate(180.29224,34.214779)" />
  <text
     x="1070.2922"
     y="1145.2147"
     font-size="28"
     dominant-baseline="mathematical"
     id="text166"
     style="font-size:28px;text-anchor:middle">17</text>
  <circle
     cx="750"
     cy="1160"
     r="20"
     id="circle168"
     sodipodi:cx="750"
     sodipodi:cy="1160"
     sodipodi:rx="20"
     sodipodi:ry="20"
     style="fill:#ffffff;stroke:#000000;stroke-width:1"
     transform="translate(180.29224,34.214779)" />
  <text
     x="930.29224"
     y="1203.2147"
     font-size="28"
     dominant-baseline="mathematical"
     id="text170"
     style="font-size:28px;text-anchor:middle">18</text>
  <circle
     cx="600"
     cy="1180"
     r="20"
     id="circle172"
     sodipodi:cx="600"
     sodipodi:cy="1180"
     sodipodi:rx="20"
     sodipodi:ry="20"
     style="fill:#ffffff;stroke:#000000;stroke-width:1"
     transform="translate(180.29224,34.214779)" />
  <text
     x="780.29224"
     y="1223.2147"
     font-size="28"
     dominant-baseline="mathematical"
     id="text174"
     style="font-size:28px;text-anchor:middle">19</text>
  <circle
     cx="450"
     cy="1160"
     r="20"
     id="circle176"
     sodipodi:cx="450"
     sodipodi:cy="1160"
     sodipodi:rx="20"
     sodipodi:ry="20"
     style="fill:#ffffff;stroke:#000000;stroke-width:1"
     transform="translate(180.29224,34.214779)" />
  <text
     x="630.29224"
     y="1203.2147"
     font-size="28"
     dominant-baseline="mathematical"
     id="text178"
     style="font-size:28px;text-anchor:middle">20</text>
  <circle
     cx="310"
     cy="1102"
     r="20"
     id="circle180"
     sodipodi:cx="310"
     sodipodi:cy="1102"
     sodipodi:rx="20"
     sodipodi:ry="20"
     style="fill:#ffffff;stroke:#000000;stroke-width:1"
     transform="translate(180.29224,34.214779)" />
  <text
     x="490.29224"
     y="1145.2147"
     font-size="28"
     dominant-baseline="mathematical"
     id="text182"
     style="font-size:28px;text-anchor:middle">21</text>
  <circle
     cx="190"
     cy="1010"
     r="20"
     id="circle184"
     sodipodi:cx="190"
     sodipodi:cy="1010"
     sodipodi:rx="20"
     sodipodi:ry="20"
     style="fill:#ffffff;stroke:#000000;stroke-width:1"
     transform="translate(180.29224,34.214779)" />
  <text
     x="370.29224"
     y="1053.2147"
     font-size="28"
     dominant-baseline="mathematical"
     id="text186"
     style="font-size:28px;text-anchor:middle">22</text>
  <circle
     cx="98"
     cy="890"
     r="20"
     id="circle188"
     sodipodi:cx="98"
     sodipodi:cy="890"
     sodipodi:rx="20"
     sodipodi:ry="20"
     style="fill:#ffffff;stroke:#000000;stroke-width:1"
     transform="translate(180.29224,34.214779)" />
  <text
     x="278.29224"
     y="933.21478"
     font-size="28"
     dominant-baseline="mathematical"
     id="text190"
     style="font-size:28px;text-anchor:middle">23</text>
  <circle
     cx="40"
     cy="750"
     r="20"
     id="circle192"
     sodipodi:cx="40"
     sodipodi:cy="750"
     sodipodi:rx="20"
     sodipodi:ry="20"
     style="fill:#ffffff;stroke:#000000;stroke-width:1"
     transform="translate(180.29224,34.214779)" />
  <text
     x="220.29224"
     y="793.21478"
     font-size="28"
     dominant-baseline="mathematical"
     id="text194"
     style="font-size:28px;text-anchor:middle">24</text>
  <g
     inkscape:groupmode="layer"
     id="layer3"
     inkscape:label="nyolcas"
     style="display:none">
    <g
       transform="translate(2.250018e-5,0)"
       id="g3098">
      <path
         inkscape:connector-curvature="0"
         id="path4195"
         d="m 1001.723,141.63213 c 9.9688,-27.91269 47.8503,-73.769262 79.7505,-73.769262 31.9003,0 125.6071,51.837862 157.5074,83.738082 31.9002,31.90023 131.5884,195.38887 135.5759,211.33898 3.9875,15.95011 63.8005,189.40758 61.8067,233.27039 -1.9938,43.8628 -19.9377,265.1706 -31.9002,283.11448 -11.9626,17.94387 -111.6508,175.4512 -137.5697,187.4138 -25.919,11.9626 -87.7256,37.8815 -107.6633,21.9314 -19.9376,-15.9501 -43.8628,-47.8503 -31.9002,-69.7817 11.9626,-21.93143 59.8129,-151.52609 73.7692,-181.43255 13.9564,-29.90646 41.8691,-161.49488 35.8878,-197.38263 -5.9813,-35.88775 -31.9002,-189.40757 -45.8566,-213.33274 -13.9563,-23.92517 -75.763,-143.551 -101.6819,-157.50735 -25.9189,-13.95635 -87.7256,-47.85034 -89.71938,-61.80668 -1.99376,-13.95635 -9.96882,-27.9127 1.99378,-65.79422 z"
         style="fill:#00ff00;fill-opacity:0.18823529;stroke:#00ff00;stroke-width:1px;stroke-linecap:butt;stroke-linejoin:miter;stroke-opacity:1" />
      <path
         inkscape:connector-curvature="0"
         id="path4197"
         d="m 955.86642,205.43258 c 5.98129,-43.86281 41.86904,-77.75679 31.90022,-133.582185 -9.96882,-55.82539 -41.86904,-55.82539 -83.73809,-63.8004457 -41.86904,-7.97505596 -155.51358,-11.962584 -171.4637,0 C 716.61474,20.012533 553.1261,191.47623 525.2134,211.41387 497.30071,231.35151 287.95549,386.8651 256.05527,392.84639 c -31.90022,5.98129 -107.66325,47.85034 -117.63207,81.74432 -9.96882,33.89399 -47.850338,205.35769 -7.97506,219.31404 39.87528,13.95635 163.48865,-11.96258 193.3951,17.94387 29.90646,29.90646 43.86281,19.93764 29.90646,99.6882 -13.95634,79.75056 -41.86904,189.40758 -43.8628,213.33278 -1.99377,23.9252 -3.98753,69.7817 13.95634,83.7381 17.94388,13.9563 107.66326,91.7131 133.58219,99.6882 25.91893,7.975 81.74432,-7.9751 91.71314,-17.9439 9.96882,-9.9688 69.78174,-69.7817 103.67573,-75.763 33.89398,-5.9813 89.71937,-11.9626 115.63831,0 25.91893,11.9625 63.80044,61.8066 69.78173,77.7568 5.9813,15.9501 45.85657,75.763 69.78174,75.763 23.92517,0 149.53232,-23.9252 165.48242,-43.8628 15.9501,-19.9377 71.7755,-87.7256 71.7755,-107.6633 0,-19.9376 -27.9127,-53.8316 -43.8628,-75.763 -15.9501,-21.9314 -145.54478,-809.46819 -145.54478,-835.38712 z"
         style="fill:#00ff00;fill-opacity:0.18823529;stroke:#00ff00;stroke-width:1px;stroke-linecap:butt;stroke-linejoin:miter;stroke-opacity:1" />
      <path
         inkscape:connector-curvature="0"
         id="path4199"
         d="M 660.78935,33.968881 C 612.93902,24.000061 483.34436,41.943937 433.50026,65.869104 383.65616,89.794271 194.24859,261.25797 146.39825,311.10207 98.547918,360.94617 4.8410097,580.2602 0.85347971,624.12301 -3.1340403,667.98582 26.77242,929.1689 82.597806,1026.8633 c 55.825394,97.6945 239.251674,251.2143 295.077064,265.1707 55.82539,13.9563 175.45123,25.9189 279.12695,19.9376 103.67573,-5.9813 161.49488,-11.9626 177.445,-39.8753 15.95011,-27.9127 9.96882,-53.8316 -1.99377,-73.7693 -11.96258,-19.9376 -45.85657,-57.8191 -75.76303,-65.7942 -29.90646,-7.975 -123.61336,0 -149.53229,17.9439 -25.91894,17.9439 -17.94388,47.8503 -73.76927,61.8067 -55.82539,13.9563 -175.45123,-37.8815 -205.35769,-65.7942 -29.90646,-27.9127 -77.75679,-101.682 -61.80668,-127.6009 15.95011,-25.91896 71.7755,-175.45125 71.7755,-199.37642 0,-23.92517 -55.82539,-95.70067 -81.74432,-101.68196 -25.91893,-5.9813 -141.55724,23.92516 -153.51982,-15.95011 -11.962588,-39.87528 -31.90023,-229.28286 -5.981296,-253.20803 25.918926,-23.92516 89.719376,-71.7755 123.613366,-77.75679 33.89399,-5.98129 105.66949,-1.99376 169.46993,-59.81292 63.80045,-57.81915 175.45123,-157.50735 199.3764,-173.45746 23.92517,-15.95012 79.75056,-57.819159 79.75056,-71.775506 0,-13.956348 7.97505,-19.93764 -7.97506,-31.900223 z"
         style="fill:#00ff00;fill-opacity:0.18823529;stroke:#00ff00;stroke-width:1px;stroke-linecap:butt;stroke-linejoin:miter;stroke-opacity:1" />
    </g>
  </g>
  <g
     inkscape:groupmode="layer"
     id="layer2"
     inkscape:label="negyes"
     style="display:none">
    <g
       transform="translate(1.500012e-5,0)"
       id="g3103">
      <path
         inkscape:transform-center-y="-138.89054"
         inkscape:transform-center-x="-178.3647"
         inkscape:connector-curvature="0"
         id="path4149"
         d="M 246.06524,351.38372 C 242.85793,328.25728 284.76027,243.92518 311.00038,219.8676 337.24048,195.81001 410.74832,122.85877 450.7392,104.85123 490.73,86.843759 600.66663,28.658101 632.9914,44.143001 665.31609,59.627952 668.9718,70.831496 652.04827,94.948202 635.12474,119.06491 493.73545,200.52972 463.7805,222.70037 433.82563,244.87096 313.05006,366.71586 290.3129,367.31694 c -22.73716,0.60106 -30.22592,6.14374 -44.24766,-15.93322 z"
         style="fill:#0000ff;fill-opacity:0.18823529;stroke:#0000ff;stroke-width:1px;stroke-linecap:butt;stroke-linejoin:miter;stroke-opacity:1" />
      <path
         inkscape:transform-center-y="177.74698"
         inkscape:transform-center-x="-139.66984"
         inkscape:connector-curvature="0"
         id="path4149-1"
         d="m 1058.2331,102.63947 c 23.1114,-3.31391 107.6358,38.19915 131.8141,64.32806 24.1784,26.12889 97.4677,99.29964 115.6595,139.20698 18.1917,39.90735 76.8837,149.57461 61.5479,181.97045 -15.3357,32.39566 -26.5223,36.10308 -50.7167,19.29086 -24.1946,-16.81212 -106.3104,-157.8243 -128.6189,-187.67675 -22.3086,-29.85227 -144.7091,-150.0648 -145.415,-172.79894 -0.7059,-22.73416 -6.283,-30.19728 15.7291,-44.32066 z"
         style="fill:#0000ff;fill-opacity:0.18823529;stroke:#0000ff;stroke-width:1px;stroke-linecap:butt;stroke-linejoin:miter;stroke-opacity:1" />
      <path
         inkscape:transform-center-y="206.55578"
         inkscape:transform-center-x="80.441923"
         inkscape:connector-curvature="0"
         id="path4149-1-9"
         d="m 1381.4742,608.289 c 14.504,18.29624 21.2165,112.2252 10.823,146.27352 -10.3936,34.04832 -36.6885,134.21746 -62.0005,170.03426 -25.3119,35.81673 -90.4881,141.75882 -126.1988,144.82832 -35.7105,3.0694 -44.548,-4.727 -42.211,-34.0963 2.3369,-29.3695 82.7927,-171.33533 97.3449,-205.64383 14.5519,-34.30858 56.748,-200.59876 76.0319,-212.65974 19.2841,-12.06098 22.9221,-20.6381 46.2105,-8.73623 z"
         style="fill:#0000ff;fill-opacity:0.18823529;stroke:#0000ff;stroke-width:1px;stroke-linecap:butt;stroke-linejoin:miter;stroke-opacity:1" />
      <path
         inkscape:transform-center-y="-294.49821"
         inkscape:transform-center-x="-360.49335"
         inkscape:connector-curvature="0"
         id="path4189"
         d="M 179.01608,647.23226 C 147.55103,626.41149 136.16907,500.69806 170.60395,449.99274 205.03891,399.28735 400.53375,306.62928 456.11042,265.83072 511.68709,225.03216 736.27751,20.865415 768.73258,17.844113 c 32.45505,-3.021302 181.11612,1.112416 190.44957,35.868369 9.33344,34.755945 11.25208,65.708938 -26.29973,93.275528 -37.55181,27.56659 -332.77395,214.23775 -361.31332,235.18837 -28.53938,20.95061 -327.45174,240.38067 -345.97161,265.53368 -18.51978,25.15294 -29.94586,12.73698 -46.58141,-0.4778 z"
         style="fill:#0000ff;fill-opacity:0.18823529;stroke:#0000ff;stroke-width:1px;stroke-linecap:butt;stroke-linejoin:miter;stroke-opacity:1" />
      <path
         sodipodi:nodetypes="cssssssssssc"
         inkscape:connector-curvature="0"
         id="path4191"
         d="m 1128.7394,1126.1403 c -16.7701,31.677 -132.29809,106.2111 -167.70182,115.5279 -35.40373,9.3168 -74.53416,9.3168 -93.1677,-13.0435 -18.63354,-22.3602 -39.13044,-113.6646 -87.57764,-126.708 -48.4472,-13.0435 -122.98137,-29.8137 -160.24845,0 -37.26708,29.8136 -89.44099,96.8944 -121.11801,98.7577 -31.67702,1.8634 -83.85093,-33.5403 -98.75776,-50.3105 -14.90684,-16.7702 -85.71429,-65.2174 -83.85094,-87.5777 1.86336,-22.3602 24.22361,-76.39751 50.31056,-78.26086 26.08696,-1.86336 387.57765,87.57766 432.29814,95.03106 44.7205,7.4534 234.78262,-13.0435 273.91302,-11.1801 42.4429,2.0211 50.3106,24.2236 55.9006,57.764 z"
         style="fill:#0000ff;fill-opacity:0.18823529;stroke:#0000ff;stroke-width:1px;stroke-linecap:butt;stroke-linejoin:miter;stroke-opacity:1" />
      <path
         sodipodi:nodetypes="cssssssssssssssc"
         inkscape:connector-curvature="0"
         id="path4193"
         d="m 793.33572,1152.2272 c 39.13043,46.5839 50.31056,67.0808 27.95031,89.441 -22.36025,22.3603 -39.13044,35.4037 -111.80124,50.3106 -72.67081,14.9068 -154.65838,9.3168 -231.0559,-18.6335 C 402.03137,1245.395 284.64007,1139.1838 258.55311,1098.19 232.46615,1057.1962 157.93199,902.53776 157.93199,863.40732 c 0,-39.13043 0,-124.84471 39.13044,-136.02484 39.13043,-11.18012 76.39751,22.36025 91.30434,44.7205 14.90684,22.36025 27.95032,59.62733 31.67703,102.48447 3.72671,42.85715 5.59005,80.12422 -9.31678,98.75776 -14.90683,18.63355 -46.58385,44.72049 -37.26708,76.39759 9.31677,31.677 104.34783,136.0248 122.98137,145.3416 18.63354,9.3167 83.85093,50.3105 113.66459,42.8571 29.81367,-7.4534 40.99379,-31.677 65.2174,-52.1739 24.2236,-20.4969 78.26087,-50.3106 111.80124,-50.3106 33.54037,0 83.85093,3.7267 106.21118,16.7702 z"
         style="fill:#0000ff;fill-opacity:0.18823529;stroke:#0000ff;stroke-width:1px;stroke-linecap:butt;stroke-linejoin:miter;stroke-opacity:1" />
    </g>
  </g>
  <g
     inkscape:groupmode="layer"
     id="layer1"
     inkscape:label="dupla"
     style="display:none">
    <g
       transform="translate(7.5000598e-6,0)"
       id="g3111">
      <path
         sodipodi:nodetypes="csssssssc"
         inkscape:connector-curvature="0"
         id="path3997"
         d="m 355.16696,244.94732 c -26.28472,-22.48373 -21.46961,-37.71471 -4.94792,-50.99435 16.52171,-13.27965 57.53901,-7.21847 87.41282,-30.0391 29.87379,-22.82061 7.07899,-37.48165 29.67486,-53.62791 22.59587,-16.146273 38.28943,2.1153 49.55432,11.75118 11.26487,9.63588 9.70774,19.59128 -5.61021,29.06318 -15.31793,9.47191 -46.27412,16.85434 -65.78872,30.79884 -19.51462,13.94451 -22.13191,42.34284 -40.61943,55.5534 -32.86672,23.48548 -36.53333,18.73662 -49.67572,7.49476 z"
         style="fill:#ff0000;fill-opacity:0.18823529;stroke:#ff0000;stroke-width:1.27589297px;stroke-linecap:butt;stroke-linejoin:miter;stroke-opacity:1" />
      <path
         inkscape:transform-center-x="-174.1259"
         sodipodi:nodetypes="csssssssssc"
         inkscape:transform-center-y="-135.41412"
         inkscape:connector-curvature="0"
         id="path4017"
         d="m 259.96793,355.14507 c -9.71498,-13.82094 -9.79673,-26.74946 4.7507,-37.16906 8.00389,-5.73278 28.43495,-7.29569 77.11075,-31.766 39.79482,-20.00564 195.16438,-151.48302 210.67277,-163.17508 34.47781,-25.993446 23.86947,-42.566281 48.93423,-61.817628 25.06475,-19.25134 42.61976,-16.240661 51.12038,-4.147339 8.5006,12.093322 3.69651,27.222623 -8.78082,38.756926 -12.47731,11.534301 -49.35553,24.961251 -74.42027,44.212601 -6.6636,5.11808 -197.5768,144.97238 -215.39462,160.2117 -49.20291,42.0825 -48.92775,56.38216 -60.2359,64.48164 -15.40317,11.03251 -28.54108,-0.33675 -33.75722,-9.58776 z"
         style="fill:#ff0000;fill-opacity:0.18823529;stroke:#ff0000;stroke-width:1.09324741px;stroke-linecap:butt;stroke-linejoin:miter;stroke-opacity:1" />
      <path
         inkscape:transform-center-y="-214.33255"
         inkscape:transform-center-x="-270.03522"
         sodipodi:nodetypes="ccccccccccc"
         inkscape:connector-curvature="0"
         id="path4021"
         d="m 192.1084,501.03212 c -11.60166,-15.40586 -21.28231,-34.67263 -6.64675,-45.6942 23.29899,-18.75286 77.07653,-33.90118 103.27595,-48.80258 34.67262,-21.28229 390.54789,-289.2805 412.49651,-308.223568 22.13883,-20.293451 23.03316,-55.973848 45.76152,-70.675577 26.18996,-19.7228087 50.33487,-0.4844 60.77635,13.380868 12.18175,16.176149 5.87646,46.274298 -9.13953,59.996617 -14.82576,12.37195 -53.58733,13.79794 -76.12549,27.14929 -21.57765,11.42089 -394.96999,296.23206 -410.94648,311.88484 -12.51489,10.63171 -45.57131,69.32519 -75.25122,79.60483 -18.69614,5.62952 -35.49962,-7.06613 -44.20086,-18.62052 z"
         style="fill:#ff0000;fill-opacity:0.18823529;stroke:#ff0000;stroke-width:1px;stroke-linecap:butt;stroke-linejoin:miter;stroke-opacity:1" />
      <path
         inkscape:transform-center-y="-293.72748"
         inkscape:transform-center-x="-386.03189"
         transform="matrix(0.82985869,-0.63791539,0.63742111,0.8304931,40.06335,336.6551)"
         d="m 888.10715,319.125 a 497.57144,35.19643 0 1 1 -995.14289,0 497.57144,35.19643 0 1 1 995.14289,0 z"
         sodipodi:ry="35.19643"
         sodipodi:rx="497.57144"
         sodipodi:cy="319.125"
         sodipodi:cx="390.53571"
         id="path4025"
         style="fill:#ff0000;fill-opacity:0.18823529;stroke:#ff0000;stroke-width:1.25;stroke-miterlimit:4;stroke-opacity:1;stroke-dasharray:none;stroke-dashoffset:0"
         sodipodi:type="arc" />
      <path
         inkscape:transform-center-y="53.551314"
         inkscape:transform-center-x="-42.737783"
         transform="matrix(0.61014678,0.79228839,-0.79228839,0.61014678,1795.1121,319.53449)"
         d="m -268.323,419.25467 a 102.48447,29.813665 0 1 1 -204.96893,0 102.48447,29.813665 0 1 1 204.96893,0 z"
         sodipodi:ry="29.813665"
         sodipodi:rx="102.48447"
         sodipodi:cy="419.25467"
         sodipodi:cx="-370.80746"
         id="path4029"
         style="fill:#ff0000;fill-opacity:0.18823529;fill-rule:nonzero;stroke:#ff0000;stroke-width:1.25;stroke-miterlimit:4;stroke-opacity:1;stroke-dasharray:none;stroke-dashoffset:0"
         sodipodi:type="arc" />
      <path
         sodipodi:nodetypes="csssssssssc"
         inkscape:transform-center-y="168.83662"
         inkscape:transform-center-x="-130.14399"
         inkscape:connector-curvature="0"
         id="path4033"
         d="m 1056.1795,110.10556 c 24.0466,-20.704259 41.1984,-19.733577 50.2447,-7.88539 9.0462,11.84818 -10.4614,49.62457 -1.4152,61.47275 9.0462,11.84818 203.5722,264.73661 217.842,277.28524 14.2699,12.54872 41.7409,-3.69661 53.0487,11.11362 11.3078,14.8102 -5.6039,41.78877 -20.4141,53.09656 -14.8103,11.30778 -34.1436,16.69149 -48.8437,-2.56181 -14.7001,-19.25329 5.764,-23.15594 -8.9361,-42.40923 -14.7001,-19.25329 -212.2362,-281.04407 -225.7255,-289.49991 -13.4893,-8.45585 -30.561,-0.11011 -40.738,-13.43932 -10.1771,-13.32919 41.2284,-59.611074 24.9372,-47.17251 z"
         style="fill:#ff0000;fill-opacity:0.18823529;stroke:#ff0000;stroke-width:1px;stroke-linecap:butt;stroke-linejoin:miter;stroke-opacity:1" />
      <path
         inkscape:transform-center-y="62.975169"
         inkscape:transform-center-x="26.988605"
         transform="matrix(-0.40976802,0.91218976,-0.91218976,-0.40976802,1544.7871,1358.6515)"
         d="m -268.323,419.25467 a 102.48447,29.813665 0 1 1 -204.96893,0 102.48447,29.813665 0 1 1 204.96893,0 z"
         sodipodi:ry="29.813665"
         sodipodi:rx="102.48447"
         sodipodi:cy="419.25467"
         sodipodi:cx="-370.80746"
         id="path4029-6"
         style="fill:#ff0000;fill-opacity:0.18823529;fill-rule:nonzero;stroke:#ff0000;stroke-width:1.25;stroke-miterlimit:4;stroke-opacity:1;stroke-dasharray:none;stroke-dashoffset:0"
         sodipodi:type="arc" />
      <path
         sodipodi:nodetypes="csssssssssc"
         inkscape:transform-center-y="200.77378"
         inkscape:transform-center-x="77.560621"
         inkscape:connector-curvature="0"
         id="path4033-4"
         d="m 1369.1721,606.06946 c 30.0259,10.26423 37.8676,25.54929 32.2258,39.3472 -5.6419,13.79799 -48.0961,16.08738 -53.738,29.88537 -5.6419,13.79791 -125.3324,309.54627 -128.9353,328.20407 -3.6028,18.658 24.3099,34.1322 17.2575,51.3796 -7.0523,17.2474 -38.8795,16.3121 -56.1269,9.2598 -17.2474,-7.0524 -31.6739,-21.0037 -22.5058,-43.4253 9.168,-22.42166 22.8893,-6.7456 32.0572,-29.16724 9.1681,-22.42161 135.014,-325.27096 135.4816,-341.1846 0.4677,-15.91364 -15.3693,-26.41547 -9.0222,-41.93814 6.3471,-15.52266 72.2783,5.39677 53.3061,-2.36076 z"
         style="fill:#ff0000;fill-opacity:0.18823529;stroke:#ff0000;stroke-width:1px;stroke-linecap:butt;stroke-linejoin:miter;stroke-opacity:1" />
      <path
         inkscape:transform-center-x="-296.27329"
         inkscape:connector-curvature="0"
         id="path4094"
         d="m 457.93199,1137.3204 c 0,-27.9503 5.59006,-54.0373 31.67702,-54.0373 26.08696,0 18.63354,35.4037 48.44721,35.4037 29.81366,0 477.01858,-1.8633 495.65218,-1.8633 18.6335,0 24.2236,-37.2671 39.1304,-37.2671 14.9069,0 33.5404,37.2671 33.5404,55.9006 0,18.6336 -13.0435,33.5404 -31.677,33.5404 -18.6336,0 -31.677,-14.9068 -46.5839,-14.9068 -14.9068,0 -480.74531,-1.8634 -501.24221,-1.8634 -20.49689,0 -26.08696,27.9504 -42.85714,26.0871 -16.77019,-1.8635 -24.2236,-20.497 -26.08696,-40.9939 z"
         style="fill:#ff0000;fill-opacity:0.18823529;stroke:#ff0000;stroke-width:1px;stroke-linecap:butt;stroke-linejoin:miter;stroke-opacity:1" />
      <path
         inkscape:transform-center-y="73.134868"
         inkscape:transform-center-x="-284.47437"
         inkscape:connector-curvature="0"
         id="path4094-0"
         d="m 339.33677,1043.1918 c 7.15974,-27.0178 19.24572,-50.80244 44.46228,-44.12001 25.21655,6.68241 8.94282,38.99561 37.76174,46.63271 28.81891,7.637 461.57995,120.3918 479.59178,125.165 18.01182,4.7731 32.96169,-29.8186 47.37115,-26.0001 14.40946,3.8186 22.87496,44.6154 18.1018,62.6272 -4.77318,18.0119 -21.19998,29.0801 -39.2118,24.3069 -18.01182,-4.7731 -26.80158,-22.5238 -41.21103,-26.3423 -14.40947,-3.8185 -464.22769,-124.9488 -484.0407,-130.1993 -19.813,-5.2505 -32.37632,20.3354 -48.10966,14.2384 -15.73329,-6.0972 -18.16486,-26.0182 -14.71556,-46.3085 z"
         style="fill:#ff0000;fill-opacity:0.18823529;stroke:#ff0000;stroke-width:1px;stroke-linecap:butt;stroke-linejoin:miter;stroke-opacity:1" />
      <path
         inkscape:transform-center-y="206.88317"
         inkscape:transform-center-x="-207.31167"
         inkscape:connector-curvature="0"
         id="path4094-7"
         d="m 191.8344,765.80825 c 19.67278,-19.85449 42.00499,-34.45082 60.53585,-16.08954 18.53087,18.36127 -11.68252,38.2642 9.49561,59.24852 21.17813,20.98431 340.16155,334.42547 353.39788,347.54067 13.23633,13.1152 43.43765,-9.423 54.02671,1.0692 10.58907,10.4922 -2.40502,50.08 -15.52019,63.3163 -13.11524,13.2364 -32.8728,14.6448 -46.10913,1.5296 -13.23633,-13.1152 -12.00963,-32.8848 -22.5987,-43.377 -10.58907,-10.4922 -340.18578,-339.69576 -354.74574,-354.12248 -14.55997,-14.42671 -38.20373,1.49328 -48.80494,-11.63398 -10.60108,-13.12742 -2.78044,-31.60979 10.32265,-47.48129 z"
         style="fill:#ff0000;fill-opacity:0.18823529;stroke:#ff0000;stroke-width:1px;stroke-linecap:butt;stroke-linejoin:miter;stroke-opacity:1" />
      <path
         inkscape:transform-center-y="142.80447"
         inkscape:transform-center-x="-254.82376"
         inkscape:connector-curvature="0"
         id="path4094-4"
         d="m 243.14554,912.8798 c 13.69827,-24.36343 31.35603,-44.36302 54.09524,-31.57797 22.73921,12.78505 -1.10884,39.99251 24.87884,54.60401 25.98767,14.61148 416.71591,232.15966 432.95821,241.29186 16.24229,9.1322 39.37935,-20.6128 52.37318,-13.3071 12.99384,7.3058 10.97177,48.9226 1.83961,65.1648 -9.13221,16.2424 -27.80755,22.8437 -44.04984,13.7115 -16.2423,-9.1322 -20.30618,-28.5185 -33.30001,-35.8243 -12.99384,-7.3057 -418.13794,-237.23452 -436.00447,-247.27992 -17.86652,-10.0454 -36.43753,11.57846 -50.1424,1.73532 -13.70477,-9.84332 -11.06953,-29.73845 -2.64836,-48.5182 z"
         style="fill:#ff0000;fill-opacity:0.18823529;stroke:#ff0000;stroke-width:1px;stroke-linecap:butt;stroke-linejoin:miter;stroke-opacity:1" />
    </g>
  </g>
</svg>
