<svg xmlns="http://www.w3.org/2000/svg" viewBox="0 0 300 300" width="300px" height="300px" version="1.1"><line style="stroke-dasharray:8,8" x1="16" y1="148" x2="81" y2="35" fill="none" stroke="black" stroke-width="1"/><line style="stroke-dasharray:8,8,2,10" x1="33" y1="157" x2="98" y2="44" fill="none" stroke="black" stroke-width="1"/><line style="" x1="85" y1="41" x2="215" y2="41" fill="none" stroke="black" stroke-width="1"/><line style="stroke-dasharray:8,8,2,10" x1="202" y1="44" x2="267" y2="157" fill="none" stroke="black" stroke-width="1"/><line style="" x1="277" y1="148" x2="212" y2="261" fill="none" stroke="black" stroke-width="1"/><line style="stroke-dasharray:8,8" x1="215" y1="268" x2="85" y2="268" fill="none" stroke="black" stroke-width="1"/><line style="stroke-dasharray:8,8,2,10" x1="215" y1="248" x2="85" y2="248" fill="none" stroke="black" stroke-width="1"/><circle cx="20" cy="150" r="20" fill="white" stroke="black" stroke-width="1"/><text x="20" y="159" font-size="28" text-anchor="middle" dominant-baseline="mathematical">1</text><circle cx="85" cy="37" r="20" fill="white" stroke="black" stroke-width="1"/><text x="85" y="46" font-size="28" text-anchor="middle" dominant-baseline="mathematical">2</text><circle cx="215" cy="37" r="20" fill="white" stroke="black" stroke-width="1"/><text x="215" y="46" font-size="28" text-anchor="middle" dominant-baseline="mathematical">3</text><circle cx="280" cy="150" r="20" fill="white" stroke="black" stroke-width="1"/><text x="280" y="159" font-size="28" text-anchor="middle" dominant-baseline="mathematical">4</text><circle cx="215" cy="263" r="20" fill="white" stroke="black" stroke-width="1"/><text x="215" y="272" font-size="28" text-anchor="middle" dominant-baseline="mathematical">5</text><circle cx="85" cy="263" r="20" fill="white" stroke="black" stroke-width="1"/><text x="85" y="272" font-size="28" text-anchor="middle" dominant-baseline="mathematical">6</text></svg>
