<?xml version="1.0" encoding="UTF-8" standalone="no"?>
<!-- Created with Inkscape (http://www.inkscape.org/) -->

<svg
   xmlns:dc="http://purl.org/dc/elements/1.1/"
   xmlns:cc="http://creativecommons.org/ns#"
   xmlns:rdf="http://www.w3.org/1999/02/22-rdf-syntax-ns#"
   xmlns:svg="http://www.w3.org/2000/svg"
   xmlns="http://www.w3.org/2000/svg"
   xmlns:sodipodi="http://sodipodi.sourceforge.net/DTD/sodipodi-0.dtd"
   xmlns:inkscape="http://www.inkscape.org/namespaces/inkscape"
   id="svg2"
   version="1.1"
   inkscape:version="0.48.1 r9760"
   width="472.84094"
   height="517.46094"
   xml:space="preserve"
   sodipodi:docname="d3c3_2_splitting2_alt1.pdf"><metadata
     id="metadata8"><rdf:RDF><cc:Work
         rdf:about=""><dc:format>image/svg+xml</dc:format><dc:type
           rdf:resource="http://purl.org/dc/dcmitype/StillImage" /><dc:title></dc:title></cc:Work></rdf:RDF></metadata><defs
     id="defs6" /><sodipodi:namedview
     pagecolor="#ffffff"
     bordercolor="#666666"
     borderopacity="1"
     objecttolerance="10"
     gridtolerance="10"
     guidetolerance="10"
     inkscape:pageopacity="0"
     inkscape:pageshadow="2"
     inkscape:window-width="1440"
     inkscape:window-height="882"
     id="namedview4"
     showgrid="false"
     fit-margin-top="0"
     fit-margin-left="0"
     fit-margin-right="0"
     fit-margin-bottom="0"
     inkscape:zoom="1.2590738"
     inkscape:cx="140.60087"
     inkscape:cy="258.72469"
     inkscape:window-x="0"
     inkscape:window-y="18"
     inkscape:window-maximized="0"
     inkscape:current-layer="g10" /><g
     id="g10"
     inkscape:groupmode="layer"
     inkscape:label="d3c3_2_splitting2_alt1"
     transform="matrix(1.25,0,0,-1.25,-131.13281,691.40625)"><path
       inkscape:connector-curvature="0"
       id="path16"
       style="opacity:0.6;fill:none;stroke:#000000;stroke-opacity:1"
       d="m 137.338,221.999 143.075,32.204" /><path
       inkscape:connector-curvature="0"
       id="path18"
       style="fill:none;stroke:#000000;stroke-opacity:1"
       d="m 270.959,552.637 9.454,-298.434" /><path
       inkscape:connector-curvature="0"
       id="path20"
       style="opacity:0.6;fill:none;stroke:#000000;stroke-opacity:1"
       d="m 280.413,254.203 69.449,-69.484" /><path
       inkscape:connector-curvature="0"
       id="path22"
       style="opacity:0.6;fill:#00ffff;fill-opacity:1;fill-rule:nonzero;stroke:none"
       d="M 344.528,389.793 483.179,315.014 124.075,354.638" /><path
       inkscape:connector-curvature="0"
       id="path24"
       style="fill:none;stroke:#000000;stroke-opacity:1"
       d="m 105.412,541.289 31.926,-319.29" /><path
       inkscape:connector-curvature="0"
       id="path26"
       style="fill:none;stroke:#000000;stroke-opacity:1"
       d="m 137.338,221.999 46.357,-82.364" /><path
       inkscape:connector-curvature="0"
       id="path28"
       style="opacity:0.6;fill:#7f0000;fill-opacity:1;fill-rule:nonzero;stroke:#000000;stroke-opacity:1"
       d="m 349.862,184.719 -111.583,19.574 -8.154,155.083" /><path
       inkscape:connector-curvature="0"
       id="path30"
       style="opacity:0.6;fill:none;stroke:#000000;stroke-opacity:1"
       d="M 349.862,184.719 238.279,204.293 230.125,359.376 349.862,184.719 z" /><path
       inkscape:connector-curvature="0"
       id="path32"
       style="opacity:0.6;fill:#7f0000;fill-opacity:1;fill-rule:nonzero;stroke:#000000;stroke-opacity:1"
       d="M 349.862,184.719 270.366,163.15 238.279,204.293" /><path
       inkscape:connector-curvature="0"
       id="path34"
       style="opacity:0.6;fill:none;stroke:#000000;stroke-opacity:1"
       d="M 349.862,184.719 270.366,163.15 238.279,204.293 349.862,184.719 z" /><path
       inkscape:connector-curvature="0"
       id="path36"
       style="fill:none;stroke:#000000;stroke-opacity:1"
       d="m 105.412,541.289 165.547,11.348" /><path
       inkscape:connector-curvature="0"
       id="path38"
       style="opacity:0.6;fill:#7f0000;fill-opacity:1;fill-rule:nonzero;stroke:#000000;stroke-opacity:1"
       d="m 270.366,163.15 -32.087,41.143 -8.154,155.083" /><path
       inkscape:connector-curvature="0"
       id="path40"
       style="opacity:0.6;fill:none;stroke:#000000;stroke-opacity:1"
       d="m 270.366,163.15 -32.087,41.143 -8.154,155.083 40.241,-196.226 z" /><path
       inkscape:connector-curvature="0"
       id="path44"
       style="opacity:0.6;fill:#7f0000;fill-opacity:1;fill-rule:nonzero;stroke:#000000;stroke-opacity:1"
       d="M 349.862,184.719 270.366,163.15 230.125,359.376" /><path
       inkscape:connector-curvature="0"
       id="path46"
       style="opacity:0.6;fill:none;stroke:#000000;stroke-opacity:1"
       d="M 349.862,184.719 270.366,163.15 230.125,359.376 349.862,184.719 z" /><path
       inkscape:connector-curvature="0"
       id="path48"
       style="opacity:0.6;fill:#00007f;fill-opacity:1;fill-rule:nonzero;stroke:#000000;stroke-opacity:1"
       d="M 349.862,184.719 270.366,163.15 230.125,359.376" /><path
       inkscape:connector-curvature="0"
       id="path50"
       style="opacity:0.6;fill:none;stroke:#000000;stroke-opacity:1"
       d="M 349.862,184.719 270.366,163.15 230.125,359.376 349.862,184.719 z" /><path
       inkscape:connector-curvature="0"
       id="path52"
       style="fill:none;stroke:#000000;stroke-opacity:1"
       d="m 270.959,552.637 79.176,-15.579" /><path
       inkscape:connector-curvature="0"
       id="path54"
       style="opacity:0.6;fill:#007f00;fill-opacity:1;fill-rule:nonzero;stroke:#000000;stroke-opacity:1"
       d="m 349.862,184.719 0.126,162.366 -119.863,12.291" /><path
       inkscape:connector-curvature="0"
       id="path56"
       style="opacity:0.6;fill:none;stroke:#000000;stroke-opacity:1"
       d="m 349.862,184.719 0.126,162.366 -119.863,12.291 119.737,-174.657 z" /><path
       inkscape:connector-curvature="0"
       id="path58"
       style="fill:none;stroke:#000000;stroke-opacity:1"
       d="m 183.695,139.635 166.167,45.084" /><path
       inkscape:connector-curvature="0"
       id="path60"
       style="opacity:0.6;fill:#00007f;fill-opacity:1;fill-rule:nonzero;stroke:#000000;stroke-opacity:1"
       d="m 349.862,184.719 -85.883,146.614 -33.854,28.043" /><path
       inkscape:connector-curvature="0"
       id="path62"
       style="opacity:0.6;fill:none;stroke:#000000;stroke-opacity:1"
       d="M 349.862,184.719 263.979,331.333 230.125,359.376 349.862,184.719 z" /><path
       inkscape:connector-curvature="0"
       id="path64"
       style="opacity:0.6;fill:#007f00;fill-opacity:1;fill-rule:nonzero;stroke:#000000;stroke-opacity:1"
       d="m 349.862,184.719 -85.883,146.614 -33.854,28.043" /><path
       inkscape:connector-curvature="0"
       id="path66"
       style="opacity:0.6;fill:none;stroke:#000000;stroke-opacity:1"
       d="M 349.862,184.719 263.979,331.333 230.125,359.376 349.862,184.719 z" /><path
       inkscape:connector-curvature="0"
       id="path68"
       style="opacity:0.6;fill:#00007f;fill-opacity:1;fill-rule:nonzero;stroke:#000000;stroke-opacity:1"
       d="M 349.862,184.719 270.366,163.15 263.979,331.333" /><path
       inkscape:connector-curvature="0"
       id="path70"
       style="opacity:0.6;fill:none;stroke:#000000;stroke-opacity:1"
       d="M 349.862,184.719 270.366,163.15 263.979,331.333 349.862,184.719 z" /><path
       inkscape:connector-curvature="0"
       id="path72"
       style="opacity:0.6;fill:#007f00;fill-opacity:1;fill-rule:nonzero;stroke:#000000;stroke-opacity:1"
       d="m 349.862,184.719 0.126,162.366 -86.009,-15.752" /><path
       inkscape:connector-curvature="0"
       id="path74"
       style="opacity:0.6;fill:none;stroke:#000000;stroke-opacity:1"
       d="m 349.862,184.719 0.126,162.366 -86.009,-15.752 85.883,-146.614 z" /><path
       inkscape:connector-curvature="0"
       id="path76"
       style="fill:none;stroke:#000000;stroke-opacity:1"
       d="M 350.135,537.058 349.862,184.719" /><path
       inkscape:connector-curvature="0"
       id="path78"
       style="opacity:0.6;fill:#00007f;fill-opacity:1;fill-rule:nonzero;stroke:#000000;stroke-opacity:1"
       d="m 270.366,163.15 -6.387,168.183 -33.854,28.043" /><path
       inkscape:connector-curvature="0"
       id="path80"
       style="opacity:0.6;fill:none;stroke:#000000;stroke-opacity:1"
       d="m 270.366,163.15 -6.387,168.183 -33.854,28.043 40.241,-196.226 z" /><path
       inkscape:connector-curvature="0"
       id="path82"
       style="opacity:0.6;fill:none;stroke:#000000;stroke-opacity:1"
       d="m 349.974,329.712 -85.31,-16.429 -33.669,29.557" /><path
       inkscape:connector-curvature="0"
       id="path84"
       style="opacity:0.6;fill:#007f00;fill-opacity:1;fill-rule:nonzero;stroke:#000000;stroke-opacity:1"
       d="m 349.988,347.085 -86.009,-15.752 -33.854,28.043" /><path
       inkscape:connector-curvature="0"
       id="path86"
       style="opacity:0.6;fill:none;stroke:#000000;stroke-opacity:1"
       d="m 349.988,347.085 -86.009,-15.752 -33.854,28.043 119.863,-12.291 z" /><path
       inkscape:connector-curvature="0"
       id="path88"
       style="opacity:0.6;fill:#00ffff;fill-opacity:1;fill-rule:nonzero;stroke:none"
       d="M 203.309,254.505 124.075,354.638 264.664,313.283" /><path
       inkscape:connector-curvature="0"
       id="path90"
       style="opacity:0.6;fill:#00ffff;fill-opacity:1;fill-rule:nonzero;stroke:none"
       d="m 483.179,315.014 -133.205,14.698 -85.31,-16.429" /><path
       inkscape:connector-curvature="0"
       id="path92"
       style="fill:none;stroke:#000000;stroke-opacity:1"
       d="m 105.412,541.289 47.302,-20.016" /><path
       inkscape:connector-curvature="0"
       id="path42"
       style="opacity:0.6;fill:#00ffff;fill-opacity:1;fill-rule:nonzero;stroke:none"
       d="M 124.075,354.638 264.664,313.283 230.995,342.84" /><path
       inkscape:connector-curvature="0"
       id="path94"
       style="fill:none;stroke:#000000;stroke-opacity:1"
       d="M 152.714,521.273 183.695,139.635" /><path
       inkscape:connector-curvature="0"
       id="path96"
       style="opacity:0.6;fill:#00ffff;fill-opacity:1;fill-rule:nonzero;stroke:none"
       d="m 203.309,254.505 279.87,60.509 -218.515,-1.731" /><path
       inkscape:connector-curvature="0"
       id="path98"
       style="fill:none;stroke:#000000;stroke-opacity:1"
       d="m 152.714,521.273 197.421,15.785" /></g></svg>